<svg width="226" height="34" viewBox="0 0 226 34" fill="none" xmlns="http://www.w3.org/2000/svg">
<circle cx="13" cy="18" r="12" stroke="white" stroke-width="2"/>
<path d="M14.15 25.225C12.9 25.225 11.8167 24.9667 10.9 24.45C10 23.9167 9.3 23.175 8.8 22.225C8.3 21.2583 8.05 20.125 8.05 18.825C8.05 16.8917 8.6 15.3667 9.7 14.25C10.8 13.1333 12.2833 12.575 14.15 12.575C14.9167 12.575 15.675 12.7083 16.425 12.975C17.175 13.2417 17.7917 13.6083 18.275 14.075L17.475 15.85C17.0083 15.4167 16.4917 15.1 15.925 14.9C15.375 14.6833 14.85 14.575 14.35 14.575C13.1667 14.575 12.25 14.95 11.6 15.7C10.9667 16.4333 10.65 17.4833 10.65 18.85C10.65 20.2167 10.9667 21.2917 11.6 22.075C12.25 22.8417 13.1667 23.225 14.35 23.225C14.85 23.225 15.375 23.125 15.925 22.925C16.4917 22.7083 17.0083 22.3833 17.475 21.95L18.275 23.75C17.7917 24.2 17.1667 24.5583 16.4 24.825C15.65 25.0917 14.9 25.225 14.15 25.225Z" fill="white"/>
<path d="M38.7 25V23.46L43.4 18.42C44.0533 17.7133 44.52 17.0733 44.8 16.5C45.0933 15.9267 45.24 15.3467 45.24 14.76C45.24 13.24 44.3467 12.48 42.56 12.48C41.2 12.48 39.98 12.9933 38.9 14.02L38.16 12.44C38.6933 11.92 39.3733 11.5067 40.2 11.2C41.0267 10.88 41.8867 10.72 42.78 10.72C44.2333 10.72 45.3467 11.0533 46.12 11.72C46.9067 12.3867 47.3 13.34 47.3 14.58C47.3 15.42 47.0933 16.24 46.68 17.04C46.28 17.84 45.6467 18.6933 44.78 19.6L41.3 23.26H47.86V25H38.7ZM55.9922 25.18C54.3522 25.18 53.0989 24.56 52.2322 23.32C51.3789 22.0667 50.9522 20.2733 50.9522 17.94C50.9522 15.5667 51.3789 13.7733 52.2322 12.56C53.0989 11.3333 54.3522 10.72 55.9922 10.72C57.6455 10.72 58.8989 11.3333 59.7522 12.56C60.6055 13.7733 61.0322 15.56 61.0322 17.92C61.0322 20.2667 60.5989 22.0667 59.7322 23.32C58.8789 24.56 57.6322 25.18 55.9922 25.18ZM55.9922 23.46C57.0055 23.46 57.7589 23.0133 58.2522 22.12C58.7455 21.2267 58.9922 19.8267 58.9922 17.92C58.9922 16.0133 58.7455 14.6267 58.2522 13.76C57.7722 12.88 57.0189 12.44 55.9922 12.44C54.9789 12.44 54.2255 12.88 53.7322 13.76C53.2389 14.64 52.9922 16.0267 52.9922 17.92C52.9922 19.8267 53.2389 21.2267 53.7322 22.12C54.2255 23.0133 54.9789 23.46 55.9922 23.46ZM64.6844 25V23.46L69.3844 18.42C70.0377 17.7133 70.5044 17.0733 70.7844 16.5C71.0777 15.9267 71.2244 15.3467 71.2244 14.76C71.2244 13.24 70.331 12.48 68.5444 12.48C67.1844 12.48 65.9644 12.9933 64.8844 14.02L64.1444 12.44C64.6777 11.92 65.3577 11.5067 66.1844 11.2C67.011 10.88 67.871 10.72 68.7644 10.72C70.2177 10.72 71.331 11.0533 72.1044 11.72C72.891 12.3867 73.2844 13.34 73.2844 14.58C73.2844 15.42 73.0777 16.24 72.6644 17.04C72.2644 17.84 71.631 18.6933 70.7644 19.6L67.2844 23.26H73.8444V25H64.6844ZM81.7566 25.18C80.8099 25.18 79.9099 25.04 79.0566 24.76C78.2032 24.4667 77.4899 24.06 76.9166 23.54L77.6366 21.94C78.2632 22.4467 78.9099 22.82 79.5766 23.06C80.2432 23.3 80.9499 23.42 81.6966 23.42C82.6566 23.42 83.3832 23.2133 83.8766 22.8C84.3832 22.3867 84.6366 21.7933 84.6366 21.02C84.6366 20.2467 84.3832 19.6733 83.8766 19.3C83.3832 18.9267 82.6632 18.74 81.7166 18.74H79.5366V17H81.5166C82.3566 17 83.0166 16.7867 83.4966 16.36C83.9899 15.9333 84.2366 15.3467 84.2366 14.6C84.2366 13.92 84.0099 13.4 83.5566 13.04C83.1032 12.6667 82.4566 12.48 81.6166 12.48C80.1899 12.48 78.9432 12.9933 77.8766 14.02L77.1566 12.44C77.7032 11.8933 78.3832 11.4733 79.1966 11.18C80.0232 10.8733 80.8832 10.72 81.7766 10.72C83.1899 10.72 84.2899 11.0467 85.0766 11.7C85.8632 12.34 86.2566 13.2333 86.2566 14.38C86.2566 15.1533 86.0566 15.8333 85.6566 16.42C85.2699 17.0067 84.7299 17.4333 84.0366 17.7C84.8766 17.9133 85.5232 18.3267 85.9766 18.94C86.4299 19.54 86.6566 20.28 86.6566 21.16C86.6566 22.4 86.2166 23.38 85.3366 24.1C84.4699 24.82 83.2766 25.18 81.7566 25.18ZM96.248 25V11.3281H104.012C106.824 11.3281 108.23 12.4219 108.23 14.6094V14.6582C108.23 15.5697 107.993 16.2728 107.518 16.7676C107.042 17.2624 106.281 17.5684 105.232 17.6855V17.8906C106.43 18.0208 107.299 18.3594 107.84 18.9062C108.387 19.4466 108.66 20.2279 108.66 21.25V21.2891C108.66 22.5195 108.286 23.4473 107.537 24.0723C106.795 24.6908 105.685 25 104.207 25H96.248ZM102.439 17.2949C103.182 17.2949 103.729 17.1061 104.08 16.7285C104.432 16.3444 104.607 15.7487 104.607 14.9414V14.8242C104.607 14.0169 104.432 13.4245 104.08 13.0469C103.729 12.6628 103.182 12.4707 102.439 12.4707H99.8906V17.2949H102.439ZM102.537 23.8574C103.325 23.8574 103.904 23.6361 104.275 23.1934C104.653 22.7507 104.842 22.0605 104.842 21.123V20.9961C104.842 20.0846 104.653 19.4173 104.275 18.9941C103.904 18.5645 103.325 18.3496 102.537 18.3496H99.8906V23.8574H102.537ZM114.68 25H111.086V14.7461H114.68V25ZM114.748 13.7207H111.018V11.4258H114.748V13.7207ZM124.791 25.1758C122.695 25.1758 121.389 24.1536 120.875 22.1094L120.68 22.168C120.927 23.4701 121.054 24.4141 121.061 25H117.457V11.3281H121.051V14.0234C121.051 14.5964 121.021 15.14 120.963 15.6543C120.911 16.1686 120.813 16.8001 120.67 17.5488L120.875 17.6074C121.135 16.5723 121.601 15.8008 122.271 15.293C122.942 14.7852 123.782 14.5312 124.791 14.5312C126.236 14.5312 127.324 14.9642 128.053 15.8301C128.788 16.696 129.156 17.9818 129.156 19.6875V20.0293C129.156 21.735 128.792 23.0208 128.062 23.8867C127.333 24.7461 126.243 25.1758 124.791 25.1758ZM123.355 23.6426C124.091 23.6426 124.638 23.3854 124.996 22.8711C125.361 22.3568 125.543 21.569 125.543 20.5078V19.209C125.543 18.1413 125.361 17.3503 124.996 16.8359C124.638 16.3216 124.091 16.0645 123.355 16.0645C122.607 16.0645 122.034 16.3542 121.637 16.9336C121.246 17.5065 121.051 18.3268 121.051 19.3945V20.3223C121.051 21.3965 121.246 22.2201 121.637 22.793C122.034 23.3594 122.607 23.6426 123.355 23.6426ZM130.654 25V24.0918L135.264 16.8066C135.413 16.5592 135.635 16.2793 135.928 15.9668L135.869 15.8105C135.589 15.8236 135.189 15.8301 134.668 15.8301H130.869V14.7461H140.039V15.6543L135.566 22.8027C135.417 23.0306 135.153 23.3594 134.775 23.7891L134.834 23.9453C135.218 23.9193 135.677 23.9062 136.211 23.9062H140.195V25H130.654ZM142.211 25.957L144.115 25.8789C144.74 25.8594 145.212 25.8236 145.531 25.7715C145.85 25.7259 146.075 25.6641 146.205 25.5859C146.335 25.5143 146.43 25.4102 146.488 25.2734L146.654 24.9219L141.615 14.7461H145.619L147.582 19.4043C147.862 20.0553 148.126 20.7943 148.373 21.6211H148.568C148.842 20.8073 149.096 20.0684 149.33 19.4043L151.039 14.7461H152.66L148.783 24.1699C148.269 25.4264 147.777 26.3542 147.309 26.9531C146.846 27.5521 146.257 27.972 145.541 28.2129C144.831 28.4603 143.812 28.61 142.484 28.6621L142.211 25.957ZM161.18 25.2637C158.921 25.2637 157.221 24.6712 156.082 23.4863C154.949 22.3014 154.383 20.5339 154.383 18.1836V18.1445C154.383 15.7943 154.949 14.0267 156.082 12.8418C157.221 11.6569 158.917 11.0645 161.17 11.0645C163.234 11.0645 164.812 11.5202 165.906 12.4316C167 13.3366 167.599 14.694 167.703 16.5039L164.08 17.002V16.2988C164.054 14.8926 163.803 13.8607 163.328 13.2031C162.853 12.5456 162.13 12.2168 161.16 12.2168C160.112 12.2168 159.334 12.6139 158.826 13.4082C158.325 14.2025 158.074 15.446 158.074 17.1387V17.5879C158.074 18.8314 158.214 19.847 158.494 20.6348C158.781 21.4225 159.22 22.0085 159.812 22.3926C160.405 22.7702 161.173 22.959 162.117 22.959C163.302 22.959 164.243 22.6823 164.939 22.1289C165.636 21.569 166.062 20.7259 166.219 19.5996L167.801 19.8535C167.488 23.4603 165.281 25.2637 161.18 25.2637ZM173.107 25.2539C172.072 25.2539 171.271 25.026 170.705 24.5703C170.145 24.1146 169.865 23.4798 169.865 22.666V22.6074C169.865 21.9564 170.044 21.4225 170.402 21.0059C170.767 20.5892 171.271 20.2604 171.916 20.0195C172.567 19.7786 173.394 19.5703 174.396 19.3945L177.141 18.916V17.3145C177.141 16.6504 177.014 16.1751 176.76 15.8887C176.506 15.5957 176.099 15.4492 175.539 15.4492C175.109 15.4492 174.764 15.5501 174.504 15.752C174.243 15.9473 174.055 16.276 173.938 16.7383C173.82 17.2005 173.768 17.832 173.781 18.6328L170.148 18.3691C170.103 17.0931 170.533 16.1296 171.438 15.4785C172.349 14.821 173.732 14.4922 175.588 14.4922C176.779 14.4922 177.753 14.6191 178.508 14.873C179.263 15.1204 179.823 15.5046 180.188 16.0254C180.552 16.5462 180.734 17.2168 180.734 18.0371V22.9102C180.734 23.1315 180.77 23.2943 180.842 23.3984C180.913 23.5026 181.024 23.5547 181.174 23.5547C181.317 23.5547 181.516 23.5091 181.77 23.418L181.672 24.2969C181.444 24.6224 181.164 24.8633 180.832 25.0195C180.507 25.1758 180.119 25.2539 179.67 25.2539C178.895 25.2539 178.335 25.0944 177.99 24.7754C177.652 24.4564 177.482 23.9486 177.482 23.252C177.482 23.0046 177.502 22.7311 177.541 22.4316L177.346 22.3926C177.04 23.3301 176.525 24.043 175.803 24.5312C175.087 25.013 174.188 25.2539 173.107 25.2539ZM174.807 23.4961C175.249 23.4961 175.646 23.3822 175.998 23.1543C176.35 22.9199 176.626 22.5911 176.828 22.168C177.036 21.7383 177.141 21.2402 177.141 20.6738V19.7559L175.715 20.0391C174.953 20.1888 174.39 20.4167 174.025 20.7227C173.667 21.0221 173.488 21.4681 173.488 22.0605V22.1387C173.488 22.5814 173.599 22.9199 173.82 23.1543C174.048 23.3822 174.377 23.4961 174.807 23.4961ZM183.824 25V14.7461H187.389C187.395 15.1888 187.372 15.6576 187.32 16.1523C187.275 16.6406 187.174 17.4023 187.018 18.4375L187.213 18.4961C187.486 17.4805 187.789 16.696 188.121 16.1426C188.453 15.5892 188.863 15.1855 189.352 14.9316C189.846 14.6712 190.497 14.4922 191.305 14.3945L191.646 17.373C190.377 17.4707 189.456 17.6172 188.883 17.8125C188.31 18.0078 187.923 18.3268 187.721 18.7695C187.519 19.2122 187.418 19.9089 187.418 20.8594V25H183.824ZM197.939 25.2441C196.852 25.2441 196.038 25.0098 195.498 24.541C194.958 24.0658 194.688 23.3529 194.688 22.4023V15.8301H193.164V14.7461H194.688V12.9004L198.281 11.6602V14.7461H201.221V15.8301H198.281V22.1191C198.281 22.5879 198.385 22.9264 198.594 23.1348C198.809 23.3431 199.141 23.4473 199.59 23.4473C200.169 23.4473 200.697 23.265 201.172 22.9004V23.8965C200.41 24.7949 199.333 25.2441 197.939 25.2441ZM214.438 21.3379C214.294 22.6204 213.734 23.5938 212.758 24.2578C211.788 24.9219 210.45 25.2539 208.744 25.2539C206.804 25.2539 205.333 24.8177 204.33 23.9453C203.327 23.0729 202.826 21.7936 202.826 20.1074V19.6191C202.826 17.959 203.324 16.6895 204.32 15.8105C205.323 14.9316 206.775 14.4922 208.676 14.4922C209.906 14.4922 210.951 14.668 211.811 15.0195C212.67 15.3711 213.318 15.8854 213.754 16.5625C214.197 17.2331 214.418 18.0469 214.418 19.0039C214.418 19.2969 214.398 19.6061 214.359 19.9316H206.43C206.469 21.1035 206.755 21.9824 207.289 22.5684C207.823 23.1478 208.627 23.4375 209.701 23.4375C210.619 23.4375 211.348 23.2552 211.889 22.8906C212.429 22.5195 212.764 21.9564 212.895 21.2012L214.438 21.3379ZM208.676 15.459C207.172 15.459 206.42 16.5755 206.42 18.8086V18.9844H210.785V18.4668C210.785 16.4616 210.082 15.459 208.676 15.459ZM216.902 25V14.7461H220.467C220.473 15.1888 220.451 15.6576 220.398 16.1523C220.353 16.6406 220.252 17.4023 220.096 18.4375L220.291 18.4961C220.564 17.4805 220.867 16.696 221.199 16.1426C221.531 15.5892 221.941 15.1855 222.43 14.9316C222.924 14.6712 223.576 14.4922 224.383 14.3945L224.725 17.373C223.455 17.4707 222.534 17.6172 221.961 17.8125C221.388 18.0078 221.001 18.3268 220.799 18.7695C220.597 19.2122 220.496 19.9089 220.496 20.8594V25H216.902Z" fill="white"/>
</svg>
