<svg width="109" height="29" viewBox="0 0 109 29" fill="none" xmlns="http://www.w3.org/2000/svg">
<g clip-path="url(#clip0_501_665)">
<path d="M8.00357 10.3973C5.7327 10.3973 3.90101 12.2274 3.90101 14.4963C3.90101 16.7653 5.7327 18.5954 8.00357 18.5954C10.2744 18.5954 12.1061 16.7653 12.1061 14.4963C12.1061 12.2274 10.2744 10.3973 8.00357 10.3973ZM8.00357 17.1613C6.53608 17.1613 5.33637 15.9661 5.33637 14.4963C5.33637 13.0265 6.53251 11.8314 8.00357 11.8314C9.47464 11.8314 10.6708 13.0265 10.6708 14.4963C10.6708 15.9661 9.47107 17.1613 8.00357 17.1613ZM13.2309 10.2296C13.2309 10.7612 12.8024 11.1857 12.2739 11.1857C11.7419 11.1857 11.317 10.7576 11.317 10.2296C11.317 9.7016 11.7455 9.2735 12.2739 9.2735C12.8024 9.2735 13.2309 9.7016 13.2309 10.2296ZM15.948 11.2C15.8873 9.91922 15.5946 8.78475 14.6555 7.85007C13.72 6.91538 12.5846 6.62284 11.3028 6.55863C9.98166 6.48371 6.02192 6.48371 4.70082 6.55863C3.42256 6.61928 2.28713 6.91181 1.34807 7.8465C0.409018 8.78119 0.119804 9.91565 0.0555342 11.1964C-0.0194473 12.5164 -0.0194473 16.4727 0.0555342 17.7927C0.116234 19.0734 0.409018 20.2079 1.34807 21.1426C2.28713 22.0773 3.41899 22.3698 4.70082 22.434C6.02192 22.5089 9.98166 22.5089 11.3028 22.434C12.5846 22.3734 13.72 22.0808 14.6555 21.1426C15.591 20.2079 15.8838 19.0734 15.948 17.7927C16.023 16.4727 16.023 12.5199 15.948 11.2ZM14.2413 19.209C13.9628 19.9082 13.4237 20.4469 12.7203 20.7288C11.667 21.1462 9.16757 21.0498 8.00357 21.0498C6.83957 21.0498 4.33662 21.1426 3.28688 20.7288C2.58705 20.4505 2.0479 19.9118 1.76583 19.209C1.34807 18.1566 1.44448 15.6593 1.44448 14.4963C1.44448 13.3333 1.35164 10.8325 1.76583 9.78365C2.04433 9.08442 2.58348 8.54573 3.28688 8.2639C4.34019 7.8465 6.83957 7.94282 8.00357 7.94282C9.16757 7.94282 11.6705 7.85007 12.7203 8.2639C13.4201 8.54216 13.9592 9.08086 14.2413 9.78365C14.6591 10.8361 14.5627 13.3333 14.5627 14.4963C14.5627 15.6593 14.6591 18.1602 14.2413 19.209Z" fill="#ABABAB"/>
</g>
<path d="M26.8281 20H21.3125V9.0625H26.7266C28.8047 9.0625 29.8828 9.94531 29.8828 11.6641V11.6953C29.8828 13.0781 29.1953 13.8828 27.7266 14.0703V14.2266C29.4375 14.4219 30.25 15.3203 30.25 16.9453V16.9844C30.25 18.9766 29.0859 20 26.8281 20ZM23.0938 9.70312V13.8672H26.0781C27.4609 13.8672 28.1016 13.2109 28.1016 11.8047V11.7422C28.1016 10.3438 27.4609 9.70312 26.0781 9.70312H23.0938ZM23.0938 14.4766V19.3594H26.1484C27.6641 19.3594 28.3828 18.5859 28.3828 16.9219V16.8516C28.3828 15.2344 27.6641 14.4766 26.1484 14.4766H23.0938ZM33.5469 10.7031H31.5781V9.22656H33.5469V10.7031ZM33.4375 20H31.6875V11.7969H33.4375V20ZM40.1641 20.1484C38.4922 20.1484 37.3203 19.3203 36.8672 17.5938L36.7109 17.6328C36.9141 18.7188 37.0078 19.4766 37.0156 20H35.2344V9.0625H36.9766V11.3516C36.9766 12.2188 36.9062 13.0078 36.7031 14.1562L36.8672 14.1953C37.3047 12.4844 38.4844 11.6328 40.1641 11.6328C42.5781 11.6328 43.8594 13.0938 43.8594 15.8203V15.9609C43.8594 18.6875 42.5781 20.1484 40.1641 20.1484ZM39.5938 19.375C41.25 19.375 42.0859 18.3125 42.0859 16.1328V15.6406C42.0859 13.4688 41.25 12.4062 39.5938 12.4062C37.9062 12.4062 36.9766 13.6641 36.9766 15.7109V16.0703C36.9766 18.1328 37.9062 19.375 39.5938 19.375ZM51.6172 20H44.4766V19.5078L48.9609 13.0859C49.1016 12.8906 49.25 12.6953 49.4219 12.5156L49.3828 12.3984C49.1016 12.4141 48.8906 12.4141 48.5859 12.4141H44.6641V11.7969H51.5V12.2891L47.1094 18.6016C46.9766 18.7969 46.7891 19.0234 46.5469 19.2812L46.5859 19.4062C46.8359 19.3828 47.125 19.3828 47.4453 19.3828H51.6172V20ZM52.6328 22.9062L52.4062 21.3438L53.8125 21.2656C55.2031 21.1953 55.5078 20.9922 55.7344 20.5078L55.9453 20.0391L52.0625 11.7969H54.0078L55.9375 16.1562C56.2422 16.8203 56.4766 17.4375 56.7344 18.2344H56.8906C57.1797 17.4375 57.4141 16.8281 57.6875 16.1562L59.4453 11.7969H60.3047L56.9297 19.7656C55.9141 22.1641 55.1484 22.7031 52.6328 22.9062ZM65.0781 20.1797C62.25 20.1797 60.75 18.6875 60.75 15.9062V15.8125C60.75 13.0938 62.2656 11.6172 65.0391 11.6172C67.5625 11.6172 68.9609 12.7734 69.1562 14.875L67.4062 15.1641V14.9141C67.2969 12.9922 66.5 12.1641 65.0234 12.1641C63.3828 12.1641 62.5234 13.2031 62.5234 15.5156V15.6797C62.5234 18.0312 63.4688 19.2812 65.4609 19.2812C67.1562 19.2812 68.1719 18.4922 68.4297 16.9141L69.2344 17.0391C68.9531 19.0859 67.5 20.1797 65.0781 20.1797ZM72.7891 20.1719C71.2031 20.1719 70.3047 19.4688 70.3047 18.2422V18.1953C70.3047 16.6641 71.6562 16.0547 73.9766 15.6172L76.2891 15.1719V14.1094C76.2891 12.7109 75.6719 12.1562 74.3516 12.1562C72.8359 12.1562 72.1797 12.9531 72.2422 14.875L70.4766 14.6094C70.4141 12.6641 71.7344 11.625 74.3672 11.625C76.8672 11.625 78.0312 12.5 78.0312 14.3203V18.7188C78.0312 19.3516 78.3516 19.4219 79.0078 19.1797L78.9453 19.6719C78.6719 20.0156 78.2969 20.1719 77.8125 20.1719C76.5859 20.1719 76.2734 19.5 76.5469 17.875L76.3906 17.8281C75.8438 19.3359 74.4766 20.1719 72.7891 20.1719ZM73.5781 19.3047C75.0469 19.3047 76.2891 18.1875 76.2891 16.5781V15.7188L74.5938 16.0547C72.8984 16.3828 72.0859 16.8906 72.0859 17.9766V18.0312C72.0859 18.8203 72.6016 19.3047 73.5781 19.3047ZM81.8516 20H80.1094V11.7969H81.8906C81.8906 12.4453 81.8203 13.0625 81.5547 14.6016L81.7188 14.6406C82.2812 12.4844 83.1953 11.7578 85.2266 11.5547L85.4844 13.0469C82.5391 13.2188 81.8516 13.8516 81.8516 16.2812V20ZM89.8672 20.1719C88.3047 20.1719 87.5078 19.4531 87.5078 18.0547V12.4141H86.0469V11.7969H87.5078V10.0625L89.2578 9.36719V11.7969H92.2969V12.4141H89.2578V17.8906C89.2578 18.8516 89.7031 19.2578 90.5859 19.2578C91.1641 19.2578 91.7344 19.0391 92.1953 18.6406L92.2188 19.1875C91.6406 19.8594 90.8047 20.1719 89.8672 20.1719ZM100.75 17.1875L101.555 17.2969C101.242 19.1875 99.7344 20.1797 97.3516 20.1797C94.5156 20.1797 92.9531 18.7344 92.9531 16.0625V15.7188C92.9531 13.1094 94.5469 11.6172 97.3047 11.6172C99.9453 11.6172 101.477 12.9922 101.477 15.2031C101.477 15.4375 101.469 15.6484 101.445 15.8906H94.7109C94.7109 18.1484 95.7422 19.2969 97.7969 19.2969C99.4219 19.2969 100.5 18.6172 100.75 17.1875ZM97.3125 12.1641C95.6562 12.1641 94.75 13.2109 94.7109 15.2891H99.7109V15.0859C99.7109 13.1406 98.8672 12.1641 97.3125 12.1641ZM104.773 20H103.031V11.7969H104.812C104.812 12.4453 104.742 13.0625 104.477 14.6016L104.641 14.6406C105.203 12.4844 106.117 11.7578 108.148 11.5547L108.406 13.0469C105.461 13.2188 104.773 13.8516 104.773 16.2812V20Z" fill="#ABABAB"/>
<defs>
<clipPath id="clip0_501_665">
<rect width="16" height="18.2656" fill="white" transform="translate(0 5.36719)"/>
</clipPath>
</defs>
</svg>
