<svg width="38" height="28" viewBox="0 0 38 28" fill="none" xmlns="http://www.w3.org/2000/svg">
<path fill-rule="evenodd" clip-rule="evenodd" d="M21.0097 26.6872C20.4858 27.3419 19.7752 27.7098 19.0343 27.7098C18.2935 27.7098 17.5829 27.3419 17.0589 26.6872L1.25299 6.92977C0.986133 6.60759 0.773275 6.22221 0.626842 5.7961C0.480408 5.36999 0.403331 4.9117 0.400107 4.44796C0.396883 3.98422 0.467578 3.52432 0.608066 3.0951C0.748553 2.66588 0.95602 2.27592 1.21836 1.948C1.4807 1.62007 1.79266 1.36074 2.13604 1.18513C2.47942 1.00952 2.84734 0.921151 3.21833 0.925181C3.58932 0.92921 3.95596 1.02556 4.29684 1.2086C4.63773 1.39164 4.94604 1.65771 5.20378 1.99129L19.0343 19.2795L32.8649 1.99129C33.3919 1.35509 34.0976 1.00306 34.8302 1.01101C35.5628 1.01897 36.2636 1.38628 36.7816 2.03383C37.2997 2.68138 37.5935 3.55736 37.5999 4.4731C37.6063 5.38884 37.3246 6.27107 36.8157 6.92977L21.0097 26.6872Z" fill="white"/>
</svg>
